# xmcd
#
# Track frame offsets:
#	150
#	12813
#	24679
#	37609
#	52842
#	70100
#	88101
#	110287
#	126780
#	155933
#	174511
#
# Disc length: 2572 seconds
#
# Revision: 1
# Processed by: cddbd v1.5.2PL0 Copyright (c) Steve Scherf et al.
# Submitted via: audiograbber 1.83.01
#
DISCID=810a0a0b
DTITLE=EHEM - Smugtapet
DYEAR=2003
DGENRE=Blues
TTITLE0=I feel good
TTITLE1=Respect
TTITLE2=Spinning Wheel
TTITLE3=Why Me
TTITLE4=Halleluja, I love her so
TTITLE5=Soul man
TTITLE6=Signed, Sealed and Delivered
TTITLE7=Shotgun Blues
TTITLE8=She Caught The Katy
TTITLE9=You Are So Beatiful
TTITLE10=B Movie Box Car Blues
EXTD=2 track recording from Smuget, Oslo
EXTT0=
EXTT1=
EXTT2=
EXTT3=
EXTT4=
EXTT5=
EXTT6=
EXTT7=
EXTT8=
EXTT9=
EXTT10=
PLAYORDER=
